ISO-10303-21;
HEADER;
/* Generated by software containing ST-Developer
 * from STEP Tools, Inc. (www.steptools.com) 
 */

FILE_DESCRIPTION(
/* description */ (''),
/* implementation_level */ '2;1');

FILE_NAME(
/* name */ 'E:\\\X2\042004300431043E04420430\X0\\\Step_test\\PART_3.st
p',
/* time_stamp */ '2026-04-20T14:44:41+05:00',
/* author */ ('rrs'),
/* organization */ (''),
/* preprocessor_version */ 'ST-DEVELOPER v18.1',
/* originating_system */ 'Autodesk Inventor 2021',
/* authorisation */ '');

FILE_SCHEMA (('AUTOMOTIVE_DESIGN { 1 0 10303 214 3 1 1 }'));
ENDSEC;

DATA;
#10=MECHANICAL_DESIGN_GEOMETRIC_PRESENTATION_REPRESENTATION('',(#13,#14),
#783);
#11=SHAPE_REPRESENTATION_RELATIONSHIP('SRR','None',#790,#12);
#12=ADVANCED_BREP_SHAPE_REPRESENTATION('',(#15,#16),#782);
#13=STYLED_ITEM('',(#799),#15);
#14=STYLED_ITEM('',(#799),#16);
#15=MANIFOLD_SOLID_BREP('Volume1',#460);
#16=MANIFOLD_SOLID_BREP('Volume2',#461);
#17=CIRCLE('',#483,12.);
#18=CIRCLE('',#484,12.);
#19=CIRCLE('',#487,22.);
#20=CIRCLE('',#488,22.);
#21=CIRCLE('',#491,11.3712860448003);
#22=CIRCLE('',#492,11.3712860448003);
#23=CIRCLE('',#497,23.3039659177485);
#24=CIRCLE('',#498,23.3039659177485);
#25=CIRCLE('',#500,20.9378653265947);
#26=CIRCLE('',#501,20.9378653265947);
#27=CIRCLE('',#504,12.);
#28=CIRCLE('',#505,12.);
#29=CIRCLE('',#508,22.);
#30=CIRCLE('',#509,22.);
#31=CYLINDRICAL_SURFACE('',#482,12.);
#32=CYLINDRICAL_SURFACE('',#486,22.);
#33=CYLINDRICAL_SURFACE('',#490,11.3712860448003);
#34=CYLINDRICAL_SURFACE('',#496,23.3039659177485);
#35=CYLINDRICAL_SURFACE('',#499,20.9378653265947);
#36=CYLINDRICAL_SURFACE('',#503,12.);
#37=CYLINDRICAL_SURFACE('',#507,22.);
#38=FACE_OUTER_BOUND('',#63,.T.);
#39=FACE_OUTER_BOUND('',#64,.T.);
#40=FACE_OUTER_BOUND('',#65,.T.);
#41=FACE_OUTER_BOUND('',#66,.T.);
#42=FACE_OUTER_BOUND('',#67,.T.);
#43=FACE_OUTER_BOUND('',#68,.T.);
#44=FACE_OUTER_BOUND('',#69,.T.);
#45=FACE_OUTER_BOUND('',#70,.T.);
#46=FACE_OUTER_BOUND('',#71,.T.);
#47=FACE_OUTER_BOUND('',#72,.T.);
#48=FACE_OUTER_BOUND('',#73,.T.);
#49=FACE_OUTER_BOUND('',#74,.T.);
#50=FACE_OUTER_BOUND('',#75,.T.);
#51=FACE_OUTER_BOUND('',#76,.T.);
#52=FACE_OUTER_BOUND('',#77,.T.);
#53=FACE_OUTER_BOUND('',#78,.T.);
#54=FACE_OUTER_BOUND('',#79,.T.);
#55=FACE_OUTER_BOUND('',#80,.T.);
#56=FACE_OUTER_BOUND('',#81,.T.);
#57=FACE_OUTER_BOUND('',#82,.T.);
#58=FACE_OUTER_BOUND('',#83,.T.);
#59=FACE_OUTER_BOUND('',#84,.T.);
#60=FACE_OUTER_BOUND('',#85,.T.);
#61=FACE_OUTER_BOUND('',#86,.T.);
#62=FACE_OUTER_BOUND('',#87,.T.);
#63=EDGE_LOOP('',(#291,#292,#293,#294));
#64=EDGE_LOOP('',(#295,#296,#297,#298));
#65=EDGE_LOOP('',(#299,#300,#301,#302));
#66=EDGE_LOOP('',(#303,#304,#305,#306));
#67=EDGE_LOOP('',(#307,#308,#309,#310));
#68=EDGE_LOOP('',(#311,#312,#313,#314));
#69=EDGE_LOOP('',(#315,#316,#317,#318));
#70=EDGE_LOOP('',(#319,#320,#321,#322));
#71=EDGE_LOOP('',(#323,#324,#325,#326));
#72=EDGE_LOOP('',(#327,#328,#329,#330));
#73=EDGE_LOOP('',(#331,#332,#333,#334));
#74=EDGE_LOOP('',(#335,#336,#337,#338));
#75=EDGE_LOOP('',(#339,#340,#341,#342));
#76=EDGE_LOOP('',(#343,#344,#345,#346));
#77=EDGE_LOOP('',(#347,#348,#349,#350));
#78=EDGE_LOOP('',(#351,#352,#353,#354));
#79=EDGE_LOOP('',(#355,#356,#357,#358));
#80=EDGE_LOOP('',(#359,#360,#361,#362,#363,#364,#365,#366,#367,#368,#369,
#370,#371,#372,#373,#374,#375));
#81=EDGE_LOOP('',(#376,#377,#378,#379,#380,#381,#382,#383,#384,#385,#386,
#387,#388,#389,#390,#391,#392));
#82=EDGE_LOOP('',(#393,#394,#395,#396));
#83=EDGE_LOOP('',(#397,#398,#399,#400));
#84=EDGE_LOOP('',(#401,#402,#403,#404));
#85=EDGE_LOOP('',(#405,#406,#407,#408));
#86=EDGE_LOOP('',(#409,#410,#411,#412));
#87=EDGE_LOOP('',(#413,#414,#415,#416));
#88=LINE('',#653,#137);
#89=LINE('',#655,#138);
#90=LINE('',#657,#139);
#91=LINE('',#658,#140);
#92=LINE('',#664,#141);
#93=LINE('',#667,#142);
#94=LINE('',#669,#143);
#95=LINE('',#670,#144);
#96=LINE('',#676,#145);
#97=LINE('',#679,#146);
#98=LINE('',#681,#147);
#99=LINE('',#682,#148);
#100=LINE('',#688,#149);
#101=LINE('',#691,#150);
#102=LINE('',#693,#151);
#103=LINE('',#694,#152);
#104=LINE('',#697,#153);
#105=LINE('',#699,#154);
#106=LINE('',#700,#155);
#107=LINE('',#703,#156);
#108=LINE('',#705,#157);
#109=LINE('',#706,#158);
#110=LINE('',#712,#159);
#111=LINE('',#718,#160);
#112=LINE('',#721,#161);
#113=LINE('',#723,#162);
#114=LINE('',#724,#163);
#115=LINE('',#730,#164);
#116=LINE('',#733,#165);
#117=LINE('',#735,#166);
#118=LINE('',#736,#167);
#119=LINE('',#742,#168);
#120=LINE('',#745,#169);
#121=LINE('',#747,#170);
#122=LINE('',#748,#171);
#123=LINE('',#750,#172);
#124=LINE('',#751,#173);
#125=LINE('',#757,#174);
#126=LINE('',#759,#175);
#127=LINE('',#761,#176);
#128=LINE('',#762,#177);
#129=LINE('',#765,#178);
#130=LINE('',#767,#179);
#131=LINE('',#768,#180);
#132=LINE('',#771,#181);
#133=LINE('',#773,#182);
#134=LINE('',#774,#183);
#135=LINE('',#776,#184);
#136=LINE('',#777,#185);
#137=VECTOR('',#524,10.);
#138=VECTOR('',#525,10.);
#139=VECTOR('',#526,10.);
#140=VECTOR('',#527,10.);
#141=VECTOR('',#534,10.);
#142=VECTOR('',#537,10.);
#143=VECTOR('',#538,10.);
#144=VECTOR('',#539,10.);
#145=VECTOR('',#546,10.);
#146=VECTOR('',#549,10.);
#147=VECTOR('',#550,10.);
#148=VECTOR('',#551,10.);
#149=VECTOR('',#558,10.);
#150=VECTOR('',#561,10.);
#151=VECTOR('',#562,10.);
#152=VECTOR('',#563,10.);
#153=VECTOR('',#566,10.);
#154=VECTOR('',#567,10.);
#155=VECTOR('',#568,10.);
#156=VECTOR('',#571,10.);
#157=VECTOR('',#572,10.);
#158=VECTOR('',#573,10.);
#159=VECTOR('',#580,10.);
#160=VECTOR('',#587,10.);
#161=VECTOR('',#590,10.);
#162=VECTOR('',#591,10.);
#163=VECTOR('',#592,10.);
#164=VECTOR('',#599,10.);
#165=VECTOR('',#602,10.);
#166=VECTOR('',#603,10.);
#167=VECTOR('',#604,10.);
#168=VECTOR('',#611,10.);
#169=VECTOR('',#614,10.);
#170=VECTOR('',#615,10.);
#171=VECTOR('',#616,10.);
#172=VECTOR('',#619,10.);
#173=VECTOR('',#620,10.);
#174=VECTOR('',#627,10.);
#175=VECTOR('',#628,10.);
#176=VECTOR('',#629,10.);
#177=VECTOR('',#630,10.);
#178=VECTOR('',#633,10.);
#179=VECTOR('',#634,10.);
#180=VECTOR('',#635,10.);
#181=VECTOR('',#638,10.);
#182=VECTOR('',#639,10.);
#183=VECTOR('',#640,10.);
#184=VECTOR('',#643,10.);
#185=VECTOR('',#644,10.);
#186=VERTEX_POINT('',#651);
#187=VERTEX_POINT('',#652);
#188=VERTEX_POINT('',#654);
#189=VERTEX_POINT('',#656);
#190=VERTEX_POINT('',#660);
#191=VERTEX_POINT('',#662);
#192=VERTEX_POINT('',#666);
#193=VERTEX_POINT('',#668);
#194=VERTEX_POINT('',#672);
#195=VERTEX_POINT('',#674);
#196=VERTEX_POINT('',#678);
#197=VERTEX_POINT('',#680);
#198=VERTEX_POINT('',#684);
#199=VERTEX_POINT('',#686);
#200=VERTEX_POINT('',#690);
#201=VERTEX_POINT('',#692);
#202=VERTEX_POINT('',#696);
#203=VERTEX_POINT('',#698);
#204=VERTEX_POINT('',#702);
#205=VERTEX_POINT('',#704);
#206=VERTEX_POINT('',#708);
#207=VERTEX_POINT('',#710);
#208=VERTEX_POINT('',#714);
#209=VERTEX_POINT('',#716);
#210=VERTEX_POINT('',#720);
#211=VERTEX_POINT('',#722);
#212=VERTEX_POINT('',#726);
#213=VERTEX_POINT('',#728);
#214=VERTEX_POINT('',#732);
#215=VERTEX_POINT('',#734);
#216=VERTEX_POINT('',#738);
#217=VERTEX_POINT('',#740);
#218=VERTEX_POINT('',#744);
#219=VERTEX_POINT('',#746);
#220=VERTEX_POINT('',#755);
#221=VERTEX_POINT('',#756);
#222=VERTEX_POINT('',#758);
#223=VERTEX_POINT('',#760);
#224=VERTEX_POINT('',#764);
#225=VERTEX_POINT('',#766);
#226=VERTEX_POINT('',#770);
#227=VERTEX_POINT('',#772);
#228=EDGE_CURVE('',#186,#187,#88,.T.);
#229=EDGE_CURVE('',#187,#188,#89,.T.);
#230=EDGE_CURVE('',#189,#188,#90,.T.);
#231=EDGE_CURVE('',#186,#189,#91,.T.);
#232=EDGE_CURVE('',#190,#186,#17,.T.);
#233=EDGE_CURVE('',#191,#189,#18,.T.);
#234=EDGE_CURVE('',#190,#191,#92,.T.);
#235=EDGE_CURVE('',#192,#190,#93,.T.);
#236=EDGE_CURVE('',#193,#191,#94,.T.);
#237=EDGE_CURVE('',#192,#193,#95,.T.);
#238=EDGE_CURVE('',#194,#192,#19,.T.);
#239=EDGE_CURVE('',#195,#193,#20,.T.);
#240=EDGE_CURVE('',#194,#195,#96,.T.);
#241=EDGE_CURVE('',#196,#194,#97,.T.);
#242=EDGE_CURVE('',#197,#195,#98,.T.);
#243=EDGE_CURVE('',#196,#197,#99,.T.);
#244=EDGE_CURVE('',#198,#196,#21,.T.);
#245=EDGE_CURVE('',#199,#197,#22,.T.);
#246=EDGE_CURVE('',#198,#199,#100,.T.);
#247=EDGE_CURVE('',#200,#198,#101,.T.);
#248=EDGE_CURVE('',#201,#199,#102,.T.);
#249=EDGE_CURVE('',#200,#201,#103,.T.);
#250=EDGE_CURVE('',#202,#200,#104,.T.);
#251=EDGE_CURVE('',#203,#201,#105,.T.);
#252=EDGE_CURVE('',#202,#203,#106,.T.);
#253=EDGE_CURVE('',#204,#202,#107,.T.);
#254=EDGE_CURVE('',#205,#203,#108,.T.);
#255=EDGE_CURVE('',#204,#205,#109,.T.);
#256=EDGE_CURVE('',#206,#204,#23,.T.);
#257=EDGE_CURVE('',#207,#205,#24,.T.);
#258=EDGE_CURVE('',#206,#207,#110,.T.);
#259=EDGE_CURVE('',#208,#206,#25,.T.);
#260=EDGE_CURVE('',#209,#207,#26,.T.);
#261=EDGE_CURVE('',#208,#209,#111,.T.);
#262=EDGE_CURVE('',#210,#208,#112,.T.);
#263=EDGE_CURVE('',#211,#209,#113,.T.);
#264=EDGE_CURVE('',#210,#211,#114,.T.);
#265=EDGE_CURVE('',#212,#210,#27,.T.);
#266=EDGE_CURVE('',#213,#211,#28,.T.);
#267=EDGE_CURVE('',#212,#213,#115,.T.);
#268=EDGE_CURVE('',#214,#212,#116,.T.);
#269=EDGE_CURVE('',#215,#213,#117,.T.);
#270=EDGE_CURVE('',#214,#215,#118,.T.);
#271=EDGE_CURVE('',#216,#214,#29,.T.);
#272=EDGE_CURVE('',#217,#215,#30,.T.);
#273=EDGE_CURVE('',#216,#217,#119,.T.);
#274=EDGE_CURVE('',#218,#216,#120,.T.);
#275=EDGE_CURVE('',#219,#217,#121,.T.);
#276=EDGE_CURVE('',#218,#219,#122,.T.);
#277=EDGE_CURVE('',#187,#218,#123,.T.);
#278=EDGE_CURVE('',#188,#219,#124,.T.);
#279=EDGE_CURVE('',#220,#221,#125,.T.);
#280=EDGE_CURVE('',#221,#222,#126,.T.);
#281=EDGE_CURVE('',#223,#222,#127,.T.);
#282=EDGE_CURVE('',#220,#223,#128,.T.);
#283=EDGE_CURVE('',#224,#220,#129,.T.);
#284=EDGE_CURVE('',#225,#223,#130,.T.);
#285=EDGE_CURVE('',#224,#225,#131,.T.);
#286=EDGE_CURVE('',#226,#224,#132,.T.);
#287=EDGE_CURVE('',#227,#225,#133,.T.);
#288=EDGE_CURVE('',#226,#227,#134,.T.);
#289=EDGE_CURVE('',#221,#226,#135,.T.);
#290=EDGE_CURVE('',#222,#227,#136,.T.);
#291=ORIENTED_EDGE('',*,*,#228,.T.);
#292=ORIENTED_EDGE('',*,*,#229,.T.);
#293=ORIENTED_EDGE('',*,*,#230,.F.);
#294=ORIENTED_EDGE('',*,*,#231,.F.);
#295=ORIENTED_EDGE('',*,*,#232,.T.);
#296=ORIENTED_EDGE('',*,*,#231,.T.);
#297=ORIENTED_EDGE('',*,*,#233,.F.);
#298=ORIENTED_EDGE('',*,*,#234,.F.);
#299=ORIENTED_EDGE('',*,*,#235,.T.);
#300=ORIENTED_EDGE('',*,*,#234,.T.);
#301=ORIENTED_EDGE('',*,*,#236,.F.);
#302=ORIENTED_EDGE('',*,*,#237,.F.);
#303=ORIENTED_EDGE('',*,*,#238,.T.);
#304=ORIENTED_EDGE('',*,*,#237,.T.);
#305=ORIENTED_EDGE('',*,*,#239,.F.);
#306=ORIENTED_EDGE('',*,*,#240,.F.);
#307=ORIENTED_EDGE('',*,*,#241,.T.);
#308=ORIENTED_EDGE('',*,*,#240,.T.);
#309=ORIENTED_EDGE('',*,*,#242,.F.);
#310=ORIENTED_EDGE('',*,*,#243,.F.);
#311=ORIENTED_EDGE('',*,*,#244,.T.);
#312=ORIENTED_EDGE('',*,*,#243,.T.);
#313=ORIENTED_EDGE('',*,*,#245,.F.);
#314=ORIENTED_EDGE('',*,*,#246,.F.);
#315=ORIENTED_EDGE('',*,*,#247,.T.);
#316=ORIENTED_EDGE('',*,*,#246,.T.);
#317=ORIENTED_EDGE('',*,*,#248,.F.);
#318=ORIENTED_EDGE('',*,*,#249,.F.);
#319=ORIENTED_EDGE('',*,*,#250,.T.);
#320=ORIENTED_EDGE('',*,*,#249,.T.);
#321=ORIENTED_EDGE('',*,*,#251,.F.);
#322=ORIENTED_EDGE('',*,*,#252,.F.);
#323=ORIENTED_EDGE('',*,*,#253,.T.);
#324=ORIENTED_EDGE('',*,*,#252,.T.);
#325=ORIENTED_EDGE('',*,*,#254,.F.);
#326=ORIENTED_EDGE('',*,*,#255,.F.);
#327=ORIENTED_EDGE('',*,*,#256,.T.);
#328=ORIENTED_EDGE('',*,*,#255,.T.);
#329=ORIENTED_EDGE('',*,*,#257,.F.);
#330=ORIENTED_EDGE('',*,*,#258,.F.);
#331=ORIENTED_EDGE('',*,*,#259,.T.);
#332=ORIENTED_EDGE('',*,*,#258,.T.);
#333=ORIENTED_EDGE('',*,*,#260,.F.);
#334=ORIENTED_EDGE('',*,*,#261,.F.);
#335=ORIENTED_EDGE('',*,*,#262,.T.);
#336=ORIENTED_EDGE('',*,*,#261,.T.);
#337=ORIENTED_EDGE('',*,*,#263,.F.);
#338=ORIENTED_EDGE('',*,*,#264,.F.);
#339=ORIENTED_EDGE('',*,*,#265,.T.);
#340=ORIENTED_EDGE('',*,*,#264,.T.);
#341=ORIENTED_EDGE('',*,*,#266,.F.);
#342=ORIENTED_EDGE('',*,*,#267,.F.);
#343=ORIENTED_EDGE('',*,*,#268,.T.);
#344=ORIENTED_EDGE('',*,*,#267,.T.);
#345=ORIENTED_EDGE('',*,*,#269,.F.);
#346=ORIENTED_EDGE('',*,*,#270,.F.);
#347=ORIENTED_EDGE('',*,*,#271,.T.);
#348=ORIENTED_EDGE('',*,*,#270,.T.);
#349=ORIENTED_EDGE('',*,*,#272,.F.);
#350=ORIENTED_EDGE('',*,*,#273,.F.);
#351=ORIENTED_EDGE('',*,*,#274,.T.);
#352=ORIENTED_EDGE('',*,*,#273,.T.);
#353=ORIENTED_EDGE('',*,*,#275,.F.);
#354=ORIENTED_EDGE('',*,*,#276,.F.);
#355=ORIENTED_EDGE('',*,*,#277,.T.);
#356=ORIENTED_EDGE('',*,*,#276,.T.);
#357=ORIENTED_EDGE('',*,*,#278,.F.);
#358=ORIENTED_EDGE('',*,*,#229,.F.);
#359=ORIENTED_EDGE('',*,*,#278,.T.);
#360=ORIENTED_EDGE('',*,*,#275,.T.);
#361=ORIENTED_EDGE('',*,*,#272,.T.);
#362=ORIENTED_EDGE('',*,*,#269,.T.);
#363=ORIENTED_EDGE('',*,*,#266,.T.);
#364=ORIENTED_EDGE('',*,*,#263,.T.);
#365=ORIENTED_EDGE('',*,*,#260,.T.);
#366=ORIENTED_EDGE('',*,*,#257,.T.);
#367=ORIENTED_EDGE('',*,*,#254,.T.);
#368=ORIENTED_EDGE('',*,*,#251,.T.);
#369=ORIENTED_EDGE('',*,*,#248,.T.);
#370=ORIENTED_EDGE('',*,*,#245,.T.);
#371=ORIENTED_EDGE('',*,*,#242,.T.);
#372=ORIENTED_EDGE('',*,*,#239,.T.);
#373=ORIENTED_EDGE('',*,*,#236,.T.);
#374=ORIENTED_EDGE('',*,*,#233,.T.);
#375=ORIENTED_EDGE('',*,*,#230,.T.);
#376=ORIENTED_EDGE('',*,*,#277,.F.);
#377=ORIENTED_EDGE('',*,*,#228,.F.);
#378=ORIENTED_EDGE('',*,*,#232,.F.);
#379=ORIENTED_EDGE('',*,*,#235,.F.);
#380=ORIENTED_EDGE('',*,*,#238,.F.);
#381=ORIENTED_EDGE('',*,*,#241,.F.);
#382=ORIENTED_EDGE('',*,*,#244,.F.);
#383=ORIENTED_EDGE('',*,*,#247,.F.);
#384=ORIENTED_EDGE('',*,*,#250,.F.);
#385=ORIENTED_EDGE('',*,*,#253,.F.);
#386=ORIENTED_EDGE('',*,*,#256,.F.);
#387=ORIENTED_EDGE('',*,*,#259,.F.);
#388=ORIENTED_EDGE('',*,*,#262,.F.);
#389=ORIENTED_EDGE('',*,*,#265,.F.);
#390=ORIENTED_EDGE('',*,*,#268,.F.);
#391=ORIENTED_EDGE('',*,*,#271,.F.);
#392=ORIENTED_EDGE('',*,*,#274,.F.);
#393=ORIENTED_EDGE('',*,*,#279,.T.);
#394=ORIENTED_EDGE('',*,*,#280,.T.);
#395=ORIENTED_EDGE('',*,*,#281,.F.);
#396=ORIENTED_EDGE('',*,*,#282,.F.);
#397=ORIENTED_EDGE('',*,*,#283,.T.);
#398=ORIENTED_EDGE('',*,*,#282,.T.);
#399=ORIENTED_EDGE('',*,*,#284,.F.);
#400=ORIENTED_EDGE('',*,*,#285,.F.);
#401=ORIENTED_EDGE('',*,*,#286,.T.);
#402=ORIENTED_EDGE('',*,*,#285,.T.);
#403=ORIENTED_EDGE('',*,*,#287,.F.);
#404=ORIENTED_EDGE('',*,*,#288,.F.);
#405=ORIENTED_EDGE('',*,*,#289,.T.);
#406=ORIENTED_EDGE('',*,*,#288,.T.);
#407=ORIENTED_EDGE('',*,*,#290,.F.);
#408=ORIENTED_EDGE('',*,*,#280,.F.);
#409=ORIENTED_EDGE('',*,*,#290,.T.);
#410=ORIENTED_EDGE('',*,*,#287,.T.);
#411=ORIENTED_EDGE('',*,*,#284,.T.);
#412=ORIENTED_EDGE('',*,*,#281,.T.);
#413=ORIENTED_EDGE('',*,*,#289,.F.);
#414=ORIENTED_EDGE('',*,*,#279,.F.);
#415=ORIENTED_EDGE('',*,*,#283,.F.);
#416=ORIENTED_EDGE('',*,*,#286,.F.);
#417=PLANE('',#481);
#418=PLANE('',#485);
#419=PLANE('',#489);
#420=PLANE('',#493);
#421=PLANE('',#494);
#422=PLANE('',#495);
#423=PLANE('',#502);
#424=PLANE('',#506);
#425=PLANE('',#510);
#426=PLANE('',#511);
#427=PLANE('',#512);
#428=PLANE('',#513);
#429=PLANE('',#514);
#430=PLANE('',#515);
#431=PLANE('',#516);
#432=PLANE('',#517);
#433=PLANE('',#518);
#434=PLANE('',#519);
#435=ADVANCED_FACE('',(#38),#417,.T.);
#436=ADVANCED_FACE('',(#39),#31,.F.);
#437=ADVANCED_FACE('',(#40),#418,.T.);
#438=ADVANCED_FACE('',(#41),#32,.T.);
#439=ADVANCED_FACE('',(#42),#419,.T.);
#440=ADVANCED_FACE('',(#43),#33,.F.);
#441=ADVANCED_FACE('',(#44),#420,.T.);
#442=ADVANCED_FACE('',(#45),#421,.T.);
#443=ADVANCED_FACE('',(#46),#422,.T.);
#444=ADVANCED_FACE('',(#47),#34,.T.);
#445=ADVANCED_FACE('',(#48),#35,.T.);
#446=ADVANCED_FACE('',(#49),#423,.T.);
#447=ADVANCED_FACE('',(#50),#36,.F.);
#448=ADVANCED_FACE('',(#51),#424,.T.);
#449=ADVANCED_FACE('',(#52),#37,.T.);
#450=ADVANCED_FACE('',(#53),#425,.T.);
#451=ADVANCED_FACE('',(#54),#426,.T.);
#452=ADVANCED_FACE('',(#55),#427,.T.);
#453=ADVANCED_FACE('',(#56),#428,.F.);
#454=ADVANCED_FACE('',(#57),#429,.T.);
#455=ADVANCED_FACE('',(#58),#430,.T.);
#456=ADVANCED_FACE('',(#59),#431,.T.);
#457=ADVANCED_FACE('',(#60),#432,.T.);
#458=ADVANCED_FACE('',(#61),#433,.T.);
#459=ADVANCED_FACE('',(#62),#434,.F.);
#460=CLOSED_SHELL('',(#435,#436,#437,#438,#439,#440,#441,#442,#443,#444,
#445,#446,#447,#448,#449,#450,#451,#452,#453));
#461=CLOSED_SHELL('',(#454,#455,#456,#457,#458,#459));
#462=DERIVED_UNIT_ELEMENT(#464,1.);
#463=DERIVED_UNIT_ELEMENT(#785,-3.);
#464=(
MASS_UNIT()
NAMED_UNIT(*)
SI_UNIT($,.GRAM.)
);
#465=DERIVED_UNIT((#462,#463));
#466=MEASURE_REPRESENTATION_ITEM('density measure',
POSITIVE_RATIO_MEASURE(1.),#465);
#467=PROPERTY_DEFINITION_REPRESENTATION(#472,#469);
#468=PROPERTY_DEFINITION_REPRESENTATION(#473,#470);
#469=REPRESENTATION('material name',(#471),#782);
#470=REPRESENTATION('density',(#466),#782);
#471=DESCRIPTIVE_REPRESENTATION_ITEM('\X2\04220438043F043E0432044B0435\X0\',
'\X2\04220438043F043E0432044B0435\X0\');
#472=PROPERTY_DEFINITION('material property','material name',#792);
#473=PROPERTY_DEFINITION('material property','density of part',#792);
#474=DATE_TIME_ROLE('creation_date');
#475=APPLIED_DATE_AND_TIME_ASSIGNMENT(#476,#474,(#792));
#476=DATE_AND_TIME(#477,#478);
#477=CALENDAR_DATE(2026,26,3);
#478=LOCAL_TIME(8,20,52.,#479);
#479=COORDINATED_UNIVERSAL_TIME_OFFSET(0,0,.BEHIND.);
#480=AXIS2_PLACEMENT_3D('placement',#649,#520,#521);
#481=AXIS2_PLACEMENT_3D('',#650,#522,#523);
#482=AXIS2_PLACEMENT_3D('',#659,#528,#529);
#483=AXIS2_PLACEMENT_3D('',#661,#530,#531);
#484=AXIS2_PLACEMENT_3D('',#663,#532,#533);
#485=AXIS2_PLACEMENT_3D('',#665,#535,#536);
#486=AXIS2_PLACEMENT_3D('',#671,#540,#541);
#487=AXIS2_PLACEMENT_3D('',#673,#542,#543);
#488=AXIS2_PLACEMENT_3D('',#675,#544,#545);
#489=AXIS2_PLACEMENT_3D('',#677,#547,#548);
#490=AXIS2_PLACEMENT_3D('',#683,#552,#553);
#491=AXIS2_PLACEMENT_3D('',#685,#554,#555);
#492=AXIS2_PLACEMENT_3D('',#687,#556,#557);
#493=AXIS2_PLACEMENT_3D('',#689,#559,#560);
#494=AXIS2_PLACEMENT_3D('',#695,#564,#565);
#495=AXIS2_PLACEMENT_3D('',#701,#569,#570);
#496=AXIS2_PLACEMENT_3D('',#707,#574,#575);
#497=AXIS2_PLACEMENT_3D('',#709,#576,#577);
#498=AXIS2_PLACEMENT_3D('',#711,#578,#579);
#499=AXIS2_PLACEMENT_3D('',#713,#581,#582);
#500=AXIS2_PLACEMENT_3D('',#715,#583,#584);
#501=AXIS2_PLACEMENT_3D('',#717,#585,#586);
#502=AXIS2_PLACEMENT_3D('',#719,#588,#589);
#503=AXIS2_PLACEMENT_3D('',#725,#593,#594);
#504=AXIS2_PLACEMENT_3D('',#727,#595,#596);
#505=AXIS2_PLACEMENT_3D('',#729,#597,#598);
#506=AXIS2_PLACEMENT_3D('',#731,#600,#601);
#507=AXIS2_PLACEMENT_3D('',#737,#605,#606);
#508=AXIS2_PLACEMENT_3D('',#739,#607,#608);
#509=AXIS2_PLACEMENT_3D('',#741,#609,#610);
#510=AXIS2_PLACEMENT_3D('',#743,#612,#613);
#511=AXIS2_PLACEMENT_3D('',#749,#617,#618);
#512=AXIS2_PLACEMENT_3D('',#752,#621,#622);
#513=AXIS2_PLACEMENT_3D('',#753,#623,#624);
#514=AXIS2_PLACEMENT_3D('',#754,#625,#626);
#515=AXIS2_PLACEMENT_3D('',#763,#631,#632);
#516=AXIS2_PLACEMENT_3D('',#769,#636,#637);
#517=AXIS2_PLACEMENT_3D('',#775,#641,#642);
#518=AXIS2_PLACEMENT_3D('',#778,#645,#646);
#519=AXIS2_PLACEMENT_3D('',#779,#647,#648);
#520=DIRECTION('axis',(0.,0.,1.));
#521=DIRECTION('refdir',(1.,0.,0.));
#522=DIRECTION('center_axis',(0.,5.69223159217197E-16,1.));
#523=DIRECTION('ref_axis',(-2.18547839493141E-16,-1.,5.69223159217197E-16));
#524=DIRECTION('',(-2.18547839493141E-16,-1.,5.69223159217197E-16));
#525=DIRECTION('',(1.,0.,0.));
#526=DIRECTION('',(-2.18547839493141E-16,-1.,5.69223159217197E-16));
#527=DIRECTION('',(1.,0.,0.));
#528=DIRECTION('center_axis',(1.,0.,0.));
#529=DIRECTION('ref_axis',(0.,-9.11074206949678E-16,1.));
#530=DIRECTION('center_axis',(-1.,2.18547839493141E-16,0.));
#531=DIRECTION('ref_axis',(-1.99113299546779E-31,-9.11074206949678E-16,
1.));
#532=DIRECTION('center_axis',(-1.,2.18547839493141E-16,0.));
#533=DIRECTION('ref_axis',(-1.99113299546779E-31,-9.11074206949678E-16,
1.));
#534=DIRECTION('',(1.,0.,0.));
#535=DIRECTION('center_axis',(0.,-0.888413426580755,0.459044206445351));
#536=DIRECTION('ref_axis',(-1.00323119550475E-16,-0.459044206445351,-0.888413426580754));
#537=DIRECTION('',(-1.00323119550475E-16,-0.459044206445351,-0.888413426580754));
#538=DIRECTION('',(-1.00323119550475E-16,-0.459044206445351,-0.888413426580754));
#539=DIRECTION('',(1.,0.,0.));
#540=DIRECTION('center_axis',(1.,0.,0.));
#541=DIRECTION('ref_axis',(0.,0.735427281080534,0.677603655718071));
#542=DIRECTION('center_axis',(1.,-2.18547839493141E-16,-1.23259516440783E-32));
#543=DIRECTION('ref_axis',(1.60726043384466E-16,0.735427281080534,0.677603655718071));
#544=DIRECTION('center_axis',(1.,-2.18547839493141E-16,-1.23259516440783E-32));
#545=DIRECTION('ref_axis',(1.60726043384466E-16,0.735427281080534,0.677603655718071));
#546=DIRECTION('',(1.,0.,0.));
#547=DIRECTION('center_axis',(0.,0.735171666064751,0.677880978797589));
#548=DIRECTION('ref_axis',(-1.48149423349709E-16,-0.677880978797589,0.735171666064751));
#549=DIRECTION('',(-1.48149423349709E-16,-0.677880978797589,0.735171666064751));
#550=DIRECTION('',(-1.48149423349709E-16,-0.677880978797589,0.735171666064751));
#551=DIRECTION('',(1.,0.,0.));
#552=DIRECTION('center_axis',(1.,0.,0.));
#553=DIRECTION('ref_axis',(0.,0.719749620954554,0.694233738114027));
#554=DIRECTION('center_axis',(-1.,2.18547839493141E-16,0.));
#555=DIRECTION('ref_axis',(1.57299724635625E-16,0.719749620954554,0.694233738114027));
#556=DIRECTION('center_axis',(-1.,2.18547839493141E-16,0.));
#557=DIRECTION('ref_axis',(1.57299724635625E-16,0.719749620954554,0.694233738114027));
#558=DIRECTION('',(1.,0.,0.));
#559=DIRECTION('center_axis',(0.,-1.14411451145205E-18,1.));
#560=DIRECTION('ref_axis',(-2.18547839493141E-16,-1.,-1.14411451145205E-18));
#561=DIRECTION('',(-2.18547839493141E-16,-1.,-1.14411451145205E-18));
#562=DIRECTION('',(-2.18547839493141E-16,-1.,-1.14411451145205E-18));
#563=DIRECTION('',(1.,0.,0.));
#564=DIRECTION('center_axis',(0.,1.,-5.69223159217197E-16));
#565=DIRECTION('ref_axis',(1.24402491636379E-31,5.69223159217197E-16,1.));
#566=DIRECTION('',(1.24402491636379E-31,5.69223159217197E-16,1.));
#567=DIRECTION('',(1.24402491636379E-31,5.69223159217197E-16,1.));
#568=DIRECTION('',(1.,0.,0.));
#569=DIRECTION('center_axis',(0.,-1.88978310064764E-16,-1.));
#570=DIRECTION('ref_axis',(2.18547839493141E-16,1.,-1.88978310064764E-16));
#571=DIRECTION('',(2.18547839493141E-16,1.,-1.88978310064764E-16));
#572=DIRECTION('',(2.18547839493141E-16,1.,-1.88978310064764E-16));
#573=DIRECTION('',(1.,0.,0.));
#574=DIRECTION('center_axis',(1.,0.,0.));
#575=DIRECTION('ref_axis',(0.,-0.373510767649904,-0.927625843996155));
#576=DIRECTION('center_axis',(1.,-2.18547839493141E-16,0.));
#577=DIRECTION('ref_axis',(-8.16299712973112E-17,-0.373510767649904,-0.927625843996155));
#578=DIRECTION('center_axis',(1.,-2.18547839493141E-16,0.));
#579=DIRECTION('ref_axis',(-8.16299712973112E-17,-0.373510767649904,-0.927625843996155));
#580=DIRECTION('',(1.,0.,0.));
#581=DIRECTION('center_axis',(1.,0.,0.));
#582=DIRECTION('ref_axis',(0.,-0.742939458504469,-0.66935861912512));
#583=DIRECTION('center_axis',(1.,-2.18547839493141E-16,0.));
#584=DIRECTION('ref_axis',(-1.62367813530356E-16,-0.742939458504469,-0.66935861912512));
#585=DIRECTION('center_axis',(1.,-2.18547839493141E-16,0.));
#586=DIRECTION('ref_axis',(-1.62367813530356E-16,-0.742939458504469,-0.66935861912512));
#587=DIRECTION('',(1.,0.,0.));
#588=DIRECTION('center_axis',(0.,-0.73542728108053,-0.677603655718074));
#589=DIRECTION('ref_axis',(1.48088814989839E-16,0.677603655718074,-0.73542728108053));
#590=DIRECTION('',(1.48088814989839E-16,0.677603655718074,-0.73542728108053));
#591=DIRECTION('',(1.48088814989839E-16,0.677603655718074,-0.73542728108053));
#592=DIRECTION('',(1.,0.,0.));
#593=DIRECTION('center_axis',(1.,0.,0.));
#594=DIRECTION('ref_axis',(0.,-0.735427281080555,-0.677603655718048));
#595=DIRECTION('center_axis',(-1.,2.18547839493141E-16,-1.23259516440783E-32));
#596=DIRECTION('ref_axis',(-1.6072604338447E-16,-0.735427281080555,-0.677603655718048));
#597=DIRECTION('center_axis',(-1.,2.18547839493141E-16,-1.23259516440783E-32));
#598=DIRECTION('ref_axis',(-1.6072604338447E-16,-0.735427281080555,-0.677603655718048));
#599=DIRECTION('',(1.,0.,0.));
#600=DIRECTION('center_axis',(0.,0.888413426580759,-0.459044206445342));
#601=DIRECTION('ref_axis',(1.00323119550473E-16,0.459044206445342,0.888413426580759));
#602=DIRECTION('',(1.00323119550473E-16,0.459044206445342,0.888413426580759));
#603=DIRECTION('',(1.00323119550473E-16,0.459044206445342,0.888413426580759));
#604=DIRECTION('',(1.,0.,0.));
#605=DIRECTION('center_axis',(1.,0.,0.));
#606=DIRECTION('ref_axis',(0.,-5.69223159217197E-16,-1.));
#607=DIRECTION('center_axis',(1.,-2.18547839493141E-16,0.));
#608=DIRECTION('ref_axis',(-1.24402491636379E-31,-5.69223159217197E-16,
-1.));
#609=DIRECTION('center_axis',(1.,-2.18547839493141E-16,0.));
#610=DIRECTION('ref_axis',(-1.24402491636379E-31,-5.69223159217197E-16,
-1.));
#611=DIRECTION('',(1.,0.,0.));
#612=DIRECTION('center_axis',(0.,9.95348451060005E-18,-1.));
#613=DIRECTION('ref_axis',(2.18547839493141E-16,1.,9.95348451060005E-18));
#614=DIRECTION('',(2.18547839493141E-16,1.,9.95348451060005E-18));
#615=DIRECTION('',(2.18547839493141E-16,1.,9.95348451060005E-18));
#616=DIRECTION('',(1.,0.,0.));
#617=DIRECTION('center_axis',(0.,-1.,5.69223159217197E-16));
#618=DIRECTION('ref_axis',(-1.24402491636379E-31,-5.69223159217197E-16,
-1.));
#619=DIRECTION('',(-1.24402491636379E-31,-5.69223159217197E-16,-1.));
#620=DIRECTION('',(-1.24402491636379E-31,-5.69223159217197E-16,-1.));
#621=DIRECTION('center_axis',(1.,-2.18547839493141E-16,0.));
#622=DIRECTION('ref_axis',(0.,0.,-1.));
#623=DIRECTION('center_axis',(1.,-2.18547839493141E-16,0.));
#624=DIRECTION('ref_axis',(0.,0.,-1.));
#625=DIRECTION('center_axis',(0.,-5.69223159217197E-16,-1.));
#626=DIRECTION('ref_axis',(-2.18547839493141E-16,-1.,5.69223159217197E-16));
#627=DIRECTION('',(-2.18547839493141E-16,-1.,5.69223159217197E-16));
#628=DIRECTION('',(-1.,0.,0.));
#629=DIRECTION('',(-2.18547839493141E-16,-1.,5.69223159217197E-16));
#630=DIRECTION('',(-1.,0.,0.));
#631=DIRECTION('center_axis',(0.,1.,-5.69223159217197E-16));
#632=DIRECTION('ref_axis',(-1.24402491636379E-31,-5.69223159217197E-16,
-1.));
#633=DIRECTION('',(-1.24402491636379E-31,-5.69223159217197E-16,-1.));
#634=DIRECTION('',(-1.24402491636379E-31,-5.69223159217197E-16,-1.));
#635=DIRECTION('',(-1.,0.,0.));
#636=DIRECTION('center_axis',(0.,5.69223159217197E-16,1.));
#637=DIRECTION('ref_axis',(2.18547839493141E-16,1.,-5.69223159217197E-16));
#638=DIRECTION('',(2.18547839493141E-16,1.,-5.69223159217197E-16));
#639=DIRECTION('',(2.18547839493141E-16,1.,-5.69223159217197E-16));
#640=DIRECTION('',(-1.,0.,0.));
#641=DIRECTION('center_axis',(0.,-1.,5.69223159217197E-16));
#642=DIRECTION('ref_axis',(1.24402491636379E-31,5.69223159217197E-16,1.));
#643=DIRECTION('',(1.24402491636379E-31,5.69223159217197E-16,1.));
#644=DIRECTION('',(1.24402491636379E-31,5.69223159217197E-16,1.));
#645=DIRECTION('center_axis',(-1.,0.,0.));
#646=DIRECTION('ref_axis',(0.,0.,1.));
#647=DIRECTION('center_axis',(-1.,2.18547839493141E-16,0.));
#648=DIRECTION('ref_axis',(0.,0.,1.));
#649=CARTESIAN_POINT('',(0.,0.,0.));
#650=CARTESIAN_POINT('Origin',(77.,-162.57641933495,8.0000000000166));
#651=CARTESIAN_POINT('',(77.,-162.57641933495,8.0000000000166));
#652=CARTESIAN_POINT('',(77.,-197.080598085371,8.00000000001662));
#653=CARTESIAN_POINT('',(77.,-162.57641933495,8.0000000000166));
#654=CARTESIAN_POINT('',(127.,-197.080598085371,8.00000000001662));
#655=CARTESIAN_POINT('',(77.,-197.080598085371,8.00000000001662));
#656=CARTESIAN_POINT('',(127.,-162.57641933495,8.0000000000166));
#657=CARTESIAN_POINT('',(127.,-162.57641933495,8.0000000000166));
#658=CARTESIAN_POINT('',(77.,-162.57641933495,8.0000000000166));
#659=CARTESIAN_POINT('Origin',(77.,-162.57641933495,20.0000000000166));
#660=CARTESIAN_POINT('',(77.,-151.915458215981,14.4914695226724));
#661=CARTESIAN_POINT('Origin',(77.,-162.57641933495,20.0000000000166));
#662=CARTESIAN_POINT('',(127.,-151.915458215981,14.4914695226724));
#663=CARTESIAN_POINT('Origin',(127.,-162.57641933495,20.0000000000166));
#664=CARTESIAN_POINT('',(77.,-151.915458215981,14.4914695226724));
#665=CARTESIAN_POINT('Origin',(77.,-143.334342919467,31.0989725418141));
#666=CARTESIAN_POINT('',(77.,-143.334342919468,31.0989725418145));
#667=CARTESIAN_POINT('',(77.,-143.302888904653,31.1598472216115));
#668=CARTESIAN_POINT('',(127.,-143.334342919468,31.0989725418145));
#669=CARTESIAN_POINT('',(127.,-143.302888904653,31.1598472216115));
#670=CARTESIAN_POINT('',(77.,-143.334342919468,31.0989725418145));
#671=CARTESIAN_POINT('Origin',(77.,-123.789247534691,21.0000000000166));
#672=CARTESIAN_POINT('',(77.,-107.609847350919,35.9072804258144));
#673=CARTESIAN_POINT('Origin',(77.,-123.789247534691,21.0000000000166));
#674=CARTESIAN_POINT('',(127.,-107.609847350919,35.9072804258144));
#675=CARTESIAN_POINT('Origin',(127.,-123.789247534691,21.0000000000166));
#676=CARTESIAN_POINT('',(77.,-107.609847350919,35.9072804258144));
#677=CARTESIAN_POINT('Origin',(77.,-85.0805980853708,11.4739857387146));
#678=CARTESIAN_POINT('',(77.,-85.0805980853708,11.4739857387146));
#679=CARTESIAN_POINT('',(77.,-85.0805980853708,11.4739857387146));
#680=CARTESIAN_POINT('',(127.,-85.0805980853708,11.4739857387146));
#681=CARTESIAN_POINT('',(127.,-85.0805980853708,11.4739857387146));
#682=CARTESIAN_POINT('',(77.,-85.0805980853708,11.4739857387146));
#683=CARTESIAN_POINT('Origin',(77.,-76.89611926486,19.3683161567601));
#684=CARTESIAN_POINT('',(77.,-76.6362460784922,8.00000000001661));
#685=CARTESIAN_POINT('Origin',(77.,-76.89611926486,19.3683161567601));
#686=CARTESIAN_POINT('',(127.,-76.6362460784922,8.00000000001661));
#687=CARTESIAN_POINT('Origin',(127.,-76.89611926486,19.3683161567601));
#688=CARTESIAN_POINT('',(77.,-76.6362460784922,8.00000000001661));
#689=CARTESIAN_POINT('Origin',(77.,-24.0805980853708,8.00000000001661));
#690=CARTESIAN_POINT('',(77.,-24.0805980853708,8.00000000001661));
#691=CARTESIAN_POINT('',(77.,-24.0805980853708,8.00000000001661));
#692=CARTESIAN_POINT('',(127.,-24.0805980853708,8.00000000001661));
#693=CARTESIAN_POINT('',(127.,-24.0805980853708,8.00000000001661));
#694=CARTESIAN_POINT('',(77.,-24.0805980853708,8.00000000001661));
#695=CARTESIAN_POINT('Origin',(77.,-24.0805980853708,-1.9999999999834));
#696=CARTESIAN_POINT('',(77.,-24.0805980853708,-1.9999999999834));
#697=CARTESIAN_POINT('',(77.,-24.0805980853708,-1.9999999999834));
#698=CARTESIAN_POINT('',(127.,-24.0805980853708,-1.9999999999834));
#699=CARTESIAN_POINT('',(127.,-24.0805980853708,-1.9999999999834));
#700=CARTESIAN_POINT('',(77.,-24.0805980853708,-1.9999999999834));
#701=CARTESIAN_POINT('Origin',(77.,-76.6362460784922,-1.99999999998339));
#702=CARTESIAN_POINT('',(77.,-76.6362460784922,-1.99999999998339));
#703=CARTESIAN_POINT('',(77.,-76.6362460784922,-1.99999999998339));
#704=CARTESIAN_POINT('',(127.,-76.6362460784922,-1.99999999998339));
#705=CARTESIAN_POINT('',(127.,-76.6362460784922,-1.99999999998339));
#706=CARTESIAN_POINT('',(77.,-76.6362460784922,-1.99999999998339));
#707=CARTESIAN_POINT('Origin',(77.,-76.3763158861454,21.3025162545049));
#708=CARTESIAN_POINT('',(77.,-85.0805980853708,-0.314844798404205));
#709=CARTESIAN_POINT('Origin',(77.,-76.3763158861454,21.3025162545049));
#710=CARTESIAN_POINT('',(127.,-85.0805980853708,-0.314844798404205));
#711=CARTESIAN_POINT('Origin',(127.,-76.3763158861454,21.3025162545049));
#712=CARTESIAN_POINT('',(77.,-85.0805980853708,-0.314844798404205));
#713=CARTESIAN_POINT('Origin',(77.,-77.2600799342841,19.107660196656));
#714=CARTESIAN_POINT('',(77.,-92.8156462622638,5.09271957421886));
#715=CARTESIAN_POINT('Origin',(77.,-77.2600799342841,19.107660196656));
#716=CARTESIAN_POINT('',(127.,-92.8156462622638,5.09271957421886));
#717=CARTESIAN_POINT('Origin',(127.,-77.2600799342841,19.107660196656));
#718=CARTESIAN_POINT('',(77.,-92.8156462622638,5.09271957421886));
#719=CARTESIAN_POINT('Origin',(77.,-114.964120161724,29.1312438686335));
#720=CARTESIAN_POINT('',(77.,-114.964120161724,29.1312438686335));
#721=CARTESIAN_POINT('',(77.,-114.964120161724,29.1312438686335));
#722=CARTESIAN_POINT('',(127.,-114.964120161724,29.1312438686335));
#723=CARTESIAN_POINT('',(127.,-114.964120161724,29.1312438686335));
#724=CARTESIAN_POINT('',(77.,-114.964120161724,29.1312438686335));
#725=CARTESIAN_POINT('Origin',(77.,-123.789247534691,21.0000000000166));
#726=CARTESIAN_POINT('',(77.,-134.45020865366,26.5085304773607));
#727=CARTESIAN_POINT('Origin',(77.,-123.789247534691,21.0000000000166));
#728=CARTESIAN_POINT('',(127.,-134.45020865366,26.5085304773607));
#729=CARTESIAN_POINT('Origin',(127.,-123.789247534691,21.0000000000166));
#730=CARTESIAN_POINT('',(77.,-134.45020865366,26.5085304773607));
#731=CARTESIAN_POINT('Origin',(77.,-143.031323950174,9.90102745821897));
#732=CARTESIAN_POINT('',(77.,-143.031323950174,9.90102745821897));
#733=CARTESIAN_POINT('',(77.,-143.031323950174,9.90102745821897));
#734=CARTESIAN_POINT('',(127.,-143.031323950174,9.90102745821897));
#735=CARTESIAN_POINT('',(127.,-143.031323950174,9.90102745821897));
#736=CARTESIAN_POINT('',(77.,-143.031323950174,9.90102745821897));
#737=CARTESIAN_POINT('Origin',(77.,-162.57641933495,20.0000000000166));
#738=CARTESIAN_POINT('',(77.,-162.57641933495,-1.99999999998339));
#739=CARTESIAN_POINT('Origin',(77.,-162.57641933495,20.0000000000166));
#740=CARTESIAN_POINT('',(127.,-162.57641933495,-1.99999999998339));
#741=CARTESIAN_POINT('Origin',(127.,-162.57641933495,20.0000000000166));
#742=CARTESIAN_POINT('',(77.,-162.57641933495,-1.99999999998339));
#743=CARTESIAN_POINT('Origin',(77.,-197.080598085371,-1.99999999998339));
#744=CARTESIAN_POINT('',(77.,-197.080598085371,-1.99999999998339));
#745=CARTESIAN_POINT('',(77.,-197.080598085371,-1.99999999998339));
#746=CARTESIAN_POINT('',(127.,-197.080598085371,-1.99999999998339));
#747=CARTESIAN_POINT('',(127.,-197.080598085371,-1.99999999998339));
#748=CARTESIAN_POINT('',(77.,-197.080598085371,-1.99999999998339));
#749=CARTESIAN_POINT('Origin',(77.,-197.080598085371,8.00000000001662));
#750=CARTESIAN_POINT('',(77.,-197.080598085371,8.00000000001662));
#751=CARTESIAN_POINT('',(127.,-197.080598085371,8.00000000001662));
#752=CARTESIAN_POINT('Origin',(127.,-110.580598085371,20.5000000000166));
#753=CARTESIAN_POINT('Origin',(77.,-110.580598085371,20.5000000000166));
#754=CARTESIAN_POINT('Origin',(77.0000000000001,10.0358798382759,-91.9624225159447));
#755=CARTESIAN_POINT('',(77.0000000000001,10.0358798382759,-91.9624225159447));
#756=CARTESIAN_POINT('',(77.,-239.964120161724,-91.9624225159446));
#757=CARTESIAN_POINT('',(77.0000000000001,10.0358798382759,-91.9624225159447));
#758=CARTESIAN_POINT('',(57.,-239.964120161724,-91.9624225159446));
#759=CARTESIAN_POINT('',(77.,-239.964120161724,-91.9624225159446));
#760=CARTESIAN_POINT('',(57.0000000000001,10.0358798382759,-91.9624225159447));
#761=CARTESIAN_POINT('',(57.0000000000001,10.0358798382759,-91.9624225159447));
#762=CARTESIAN_POINT('',(77.0000000000001,10.0358798382759,-91.9624225159447));
#763=CARTESIAN_POINT('Origin',(77.0000000000001,10.035879838276,108.037577484055));
#764=CARTESIAN_POINT('',(77.0000000000001,10.0358798382761,108.037577484055));
#765=CARTESIAN_POINT('',(77.0000000000001,10.035879838276,108.037577484055));
#766=CARTESIAN_POINT('',(57.0000000000001,10.0358798382761,108.037577484055));
#767=CARTESIAN_POINT('',(57.0000000000001,10.035879838276,108.037577484055));
#768=CARTESIAN_POINT('',(77.0000000000001,10.0358798382761,108.037577484055));
#769=CARTESIAN_POINT('Origin',(77.,-239.964120161724,108.037577484055));
#770=CARTESIAN_POINT('',(77.,-239.964120161724,108.037577484055));
#771=CARTESIAN_POINT('',(77.,-239.964120161724,108.037577484055));
#772=CARTESIAN_POINT('',(57.,-239.964120161724,108.037577484055));
#773=CARTESIAN_POINT('',(57.,-239.964120161724,108.037577484055));
#774=CARTESIAN_POINT('',(77.,-239.964120161724,108.037577484055));
#775=CARTESIAN_POINT('Origin',(77.,-239.964120161724,-91.9624225159446));
#776=CARTESIAN_POINT('',(77.,-239.964120161724,-91.9624225159445));
#777=CARTESIAN_POINT('',(57.,-239.964120161724,-91.9624225159445));
#778=CARTESIAN_POINT('Origin',(57.,-114.964120161724,8.03757748405538));
#779=CARTESIAN_POINT('Origin',(77.,-114.964120161724,8.03757748405538));
#780=UNCERTAINTY_MEASURE_WITH_UNIT(LENGTH_MEASURE(0.01),#784,
'DISTANCE_ACCURACY_VALUE',
'Maximum model space distance between geometric entities at asserted c
onnectivities');
#781=UNCERTAINTY_MEASURE_WITH_UNIT(LENGTH_MEASURE(0.01),#784,
'DISTANCE_ACCURACY_VALUE',
'Maximum model space distance between geometric entities at asserted c
onnectivities');
#782=(
GEOMETRIC_REPRESENTATION_CONTEXT(3)
GLOBAL_UNCERTAINTY_ASSIGNED_CONTEXT((#780))
GLOBAL_UNIT_ASSIGNED_CONTEXT((#784,#786,#787))
REPRESENTATION_CONTEXT('','3D')
);
#783=(
GEOMETRIC_REPRESENTATION_CONTEXT(3)
GLOBAL_UNCERTAINTY_ASSIGNED_CONTEXT((#781))
GLOBAL_UNIT_ASSIGNED_CONTEXT((#784,#786,#787))
REPRESENTATION_CONTEXT('','3D')
);
#784=(
LENGTH_UNIT()
NAMED_UNIT(*)
SI_UNIT(.MILLI.,.METRE.)
);
#785=(
LENGTH_UNIT()
NAMED_UNIT(*)
SI_UNIT(.CENTI.,.METRE.)
);
#786=(
NAMED_UNIT(*)
PLANE_ANGLE_UNIT()
SI_UNIT($,.RADIAN.)
);
#787=(
NAMED_UNIT(*)
SI_UNIT($,.STERADIAN.)
SOLID_ANGLE_UNIT()
);
#788=SHAPE_DEFINITION_REPRESENTATION(#789,#790);
#789=PRODUCT_DEFINITION_SHAPE('',$,#792);
#790=SHAPE_REPRESENTATION('',(#480),#782);
#791=PRODUCT_DEFINITION_CONTEXT('part definition',#796,'design');
#792=PRODUCT_DEFINITION('1','1',#793,#791);
#793=PRODUCT_DEFINITION_FORMATION(' ',$,#798);
#794=PRODUCT_RELATED_PRODUCT_CATEGORY('1','1',(#798));
#795=APPLICATION_PROTOCOL_DEFINITION('international standard',
'automotive_design',2009,#796);
#796=APPLICATION_CONTEXT(
'Core Data for Automotive Mechanical Design Process');
#797=PRODUCT_CONTEXT('part definition',#796,'mechanical');
#798=PRODUCT('1','1',$,(#797));
#799=PRESENTATION_STYLE_ASSIGNMENT((#800));
#800=SURFACE_STYLE_USAGE(.BOTH.,#803);
#801=SURFACE_STYLE_RENDERING_WITH_PROPERTIES($,#807,(#802));
#802=SURFACE_STYLE_TRANSPARENT(0.);
#803=SURFACE_SIDE_STYLE('',(#804,#801));
#804=SURFACE_STYLE_FILL_AREA(#805);
#805=FILL_AREA_STYLE('',(#806));
#806=FILL_AREA_STYLE_COLOUR('',#807);
#807=COLOUR_RGB('',0.749019607843137,0.749019607843137,0.749019607843137);
ENDSEC;
END-ISO-10303-21;
